<?xml version="1.0" encoding="UTF-8" standalone="no"?>
<!-- Created with Inkscape (http://www.inkscape.org/) -->

<svg
   width="210mm"
   height="297mm"
   viewBox="0 0 210 297"
   version="1.1"
   id="svg5"
   inkscape:version="1.1.1 (3bf5ae0d25, 2021-09-20)"
   sodipodi:docname="featured-image.svg"
   inkscape:export-filename="D:\Programming\Github\michalbrylka.github.io\content\posts\generic-math-matrix\featured-image.png"
   inkscape:export-xdpi="96"
   inkscape:export-ydpi="96"
   xmlns:inkscape="http://www.inkscape.org/namespaces/inkscape"
   xmlns:sodipodi="http://sodipodi.sourceforge.net/DTD/sodipodi-0.dtd"
   xmlns="http://www.w3.org/2000/svg"
   xmlns:svg="http://www.w3.org/2000/svg">
  <sodipodi:namedview
     id="namedview7"
     pagecolor="#ffffff"
     bordercolor="#666666"
     borderopacity="1.0"
     inkscape:pageshadow="2"
     inkscape:pageopacity="0.0"
     inkscape:pagecheckerboard="0"
     inkscape:document-units="mm"
     showgrid="false"
     inkscape:zoom="2"
     inkscape:cx="435.25"
     inkscape:cy="680.25"
     inkscape:window-width="2560"
     inkscape:window-height="1377"
     inkscape:window-x="-8"
     inkscape:window-y="-8"
     inkscape:window-maximized="1"
     inkscape:current-layer="layer1" />
  <defs
     id="defs2">
    <linearGradient
       id="e"
       x1="50.576"
       x2="427.59"
       y1="235.51"
       y2="115.09"
       gradientTransform="matrix(0.00472596,0.07948044,-0.11816785,0.07018684,24.385873,30.163362)"
       gradientUnits="userSpaceOnUse">
      <stop
         stop-color="#a9a9a9"
         offset="0"
         id="stop341" />
      <stop
         stop-color="#eaeaea"
         offset="1"
         id="stop343" />
    </linearGradient>
    <linearGradient
       id="h"
       x1="50.576"
       x2="427.59"
       y1="235.51"
       y2="115.09"
       gradientTransform="matrix(0.71872,0.68562,-0.22956,2.1466,86.797,-287.08)"
       gradientUnits="userSpaceOnUse">
      <stop
         stop-color="#a9a9a9"
         offset="0"
         id="stop346" />
      <stop
         stop-color="#eaeaea"
         offset="1"
         id="stop348" />
    </linearGradient>
    <linearGradient
       id="g"
       x1="50.576"
       x2="427.59"
       y1="235.51"
       y2="115.09"
       gradientTransform="matrix(1.028,0.33307,-0.32836,1.0428,160.44,365)"
       gradientUnits="userSpaceOnUse">
      <stop
         stop-color="#a9a9a9"
         offset="0"
         id="stop351" />
      <stop
         stop-color="#eaeaea"
         offset="1"
         id="stop353" />
    </linearGradient>
    <linearGradient
       id="f"
       x1="50.576"
       x2="427.59"
       y1="235.51"
       y2="115.09"
       gradientTransform="matrix(0.71694,0.52984,-0.229,1.6588,430.48,66.521)"
       gradientUnits="userSpaceOnUse">
      <stop
         stop-color="#a9a9a9"
         offset="0"
         id="stop356" />
      <stop
         stop-color="#eaeaea"
         offset="1"
         id="stop358" />
    </linearGradient>
    <clipPath
       clipPathUnits="userSpaceOnUse"
       id="clipPath5035">
      <rect
         style="fill:#003380;fill-rule:evenodd;stroke-width:0.34009"
         id="rect5037"
         width="158.75"
         height="105.83334"
         x="57.751598"
         y="118.01004"
         transform="rotate(11.274808)" />
    </clipPath>
  </defs>
  <g
     inkscape:label="Layer 1"
     inkscape:groupmode="layer"
     id="layer1">
    <rect
       style="fill:#002255;fill-rule:evenodd;stroke-width:0.36734"
       id="rect31"
       width="211.66667"
       height="92.604164"
       x="25.262613"
       y="154.06709"
       inkscape:export-filename="D:\Programming\Github\michalbrylka.github.io\content\posts\generic-math-matrix\rect31.png"
       inkscape:export-xdpi="96"
       inkscape:export-ydpi="96" />
    <g
       id="g4833"
       transform="matrix(1.3076009,-0.17107558,0.26068661,0.85811304,-51.739516,50.808315)"
       style="fill:#214478"
       clip-path="url(#clipPath5035)"
       inkscape:export-filename="D:\Programming\Github\michalbrylka.github.io\content\posts\generic-math-matrix\rect31.png"
       inkscape:export-xdpi="96"
       inkscape:export-ydpi="96">
      <rect
         style="fill:#214478;stroke-width:0.288327"
         id="rect4628"
         width="243.58945"
         height="13.229167"
         x="-9.0343847"
         y="171.97917" />
      <rect
         style="fill:#214478;stroke-width:0.288327"
         id="rect4814"
         width="243.58945"
         height="13.229167"
         x="-9.0343847"
         y="198.4375" />
      <rect
         style="fill:#214478;stroke-width:0.288327"
         id="rect4816"
         width="243.58945"
         height="13.229167"
         x="-9.0343847"
         y="224.89583" />
      <rect
         style="fill:#214478;stroke-width:0.288327"
         id="rect4818"
         width="243.58945"
         height="13.229167"
         x="-9.0343847"
         y="251.35417" />
      <rect
         style="fill:#214478;stroke-width:0.288327"
         id="rect4820"
         width="243.58945"
         height="13.229167"
         x="-9.0343847"
         y="277.8125" />
      <rect
         style="fill:#214478;stroke-width:0.288327"
         id="rect4822"
         width="243.58945"
         height="13.229167"
         x="-9.0343847"
         y="145.52083" />
      <rect
         style="fill:#214478;stroke-width:0.288327"
         id="rect4824"
         width="243.58945"
         height="13.229167"
         x="-9.0343847"
         y="119.0625" />
    </g>
    <g
       id="g6500"
       transform="translate(34.01574,0.26828248)">
      <g
         id="g6345"
         transform="translate(0,51.207412)">
        <path
           d="m 123.7738,135.60639 h 15.94438 c 2.92743,0 5.31476,2.38743 5.31476,5.31477 v 15.94438 c 0,2.92743 -2.38742,5.31476 -5.31476,5.31476 H 123.7738 c -2.92743,0 -5.31477,-2.38742 -5.31477,-5.31476 v -15.94438 c 0,-2.92743 2.38742,-5.31477 5.31477,-5.31477 z"
           fill="#4d4948"
           stroke="#4d4948"
           stroke-width="0.468593"
           id="path157"
           style="fill-rule:evenodd;image-rendering:optimizeQuality;shape-rendering:geometricPrecision;text-rendering:geometricPrecision" />
        <path
           d="m 124.83668,138.52954 h 13.81853 c 1.90285,0 3.45458,1.55183 3.45458,3.45459 v 13.81853 c 0,1.90285 -1.55182,3.45458 -3.45458,3.45458 h -13.81853 c -1.90285,0 -3.45459,-1.55182 -3.45459,-3.45458 v -13.81853 c 0,-1.90285 1.55183,-3.45459 3.45459,-3.45459 z"
           fill="#ddeae6"
           stroke="#00923f"
           stroke-width="0.937364"
           id="path159"
           style="fill:#87aade;fill-rule:evenodd;stroke:#002255;image-rendering:optimizeQuality;shape-rendering:geometricPrecision;text-rendering:geometricPrecision" />
        <path
           d="m 118.45894,154.20825 h -2.65738"
           fill="none"
           stroke="#e77817"
           stroke-linecap="round"
           stroke-width="1.87491"
           id="path161"
           style="fill-rule:evenodd;image-rendering:optimizeQuality;shape-rendering:geometricPrecision;text-rendering:geometricPrecision" />
        <path
           d="m 118.45894,151.54872 h -2.65738"
           fill="none"
           stroke="#e77817"
           stroke-linecap="round"
           stroke-width="1.87491"
           id="path163"
           style="fill-rule:evenodd;image-rendering:optimizeQuality;shape-rendering:geometricPrecision;text-rendering:geometricPrecision" />
        <path
           d="m 118.45894,146.23601 h -2.65738"
           fill="none"
           stroke="#e77817"
           stroke-linecap="round"
           stroke-width="1.87491"
           id="path165"
           style="fill-rule:evenodd;image-rendering:optimizeQuality;shape-rendering:geometricPrecision;text-rendering:geometricPrecision" />
        <path
           d="m 118.45894,148.89125 h -2.65738"
           fill="none"
           stroke="#e77817"
           stroke-linecap="round"
           stroke-width="1.87491"
           id="path167"
           style="fill-rule:evenodd;image-rendering:optimizeQuality;shape-rendering:geometricPrecision;text-rendering:geometricPrecision" />
        <path
           d="m 118.45894,143.57649 h -2.65738"
           fill="none"
           stroke="#e77817"
           stroke-linecap="round"
           stroke-width="1.87491"
           id="path169"
           style="fill-rule:evenodd;image-rendering:optimizeQuality;shape-rendering:geometricPrecision;text-rendering:geometricPrecision" />
        <path
           d="m 118.45894,140.9191 h -2.65738"
           fill="none"
           stroke="#e77817"
           stroke-linecap="round"
           stroke-width="1.87491"
           id="path171"
           style="fill-rule:evenodd;image-rendering:optimizeQuality;shape-rendering:geometricPrecision;text-rendering:geometricPrecision" />
        <path
           d="m 118.45894,156.865 h -2.65738"
           fill="none"
           stroke="#e77817"
           stroke-linecap="round"
           stroke-width="1.87491"
           id="path173"
           style="fill-rule:evenodd;image-rendering:optimizeQuality;shape-rendering:geometricPrecision;text-rendering:geometricPrecision" />
        <path
           d="m 147.6905,154.20825 h -2.65738"
           fill="none"
           stroke="#e77817"
           stroke-linecap="round"
           stroke-width="1.87491"
           id="path175"
           style="fill-rule:evenodd;image-rendering:optimizeQuality;shape-rendering:geometricPrecision;text-rendering:geometricPrecision" />
        <path
           d="m 147.6905,151.54881 h -2.65738"
           fill="none"
           stroke="#e77817"
           stroke-linecap="round"
           stroke-width="1.87491"
           id="path177"
           style="fill-rule:evenodd;image-rendering:optimizeQuality;shape-rendering:geometricPrecision;text-rendering:geometricPrecision" />
        <path
           d="m 147.6905,146.23619 h -2.65738"
           fill="none"
           stroke="#e77817"
           stroke-linecap="round"
           stroke-width="1.87491"
           id="path179"
           style="fill-rule:evenodd;image-rendering:optimizeQuality;shape-rendering:geometricPrecision;text-rendering:geometricPrecision" />
        <path
           d="m 147.6905,148.89116 h -2.65738"
           fill="none"
           stroke="#e77817"
           stroke-linecap="round"
           stroke-width="1.87491"
           id="path181"
           style="fill-rule:evenodd;image-rendering:optimizeQuality;shape-rendering:geometricPrecision;text-rendering:geometricPrecision" />
        <path
           d="m 147.6905,143.57675 h -2.65738"
           fill="none"
           stroke="#e77817"
           stroke-linecap="round"
           stroke-width="1.87491"
           id="path183"
           style="fill-rule:evenodd;image-rendering:optimizeQuality;shape-rendering:geometricPrecision;text-rendering:geometricPrecision" />
        <path
           d="m 147.69032,140.9191 h -2.65738"
           fill="none"
           stroke="#e77817"
           stroke-linecap="round"
           stroke-width="1.87491"
           id="path185"
           style="fill-rule:evenodd;image-rendering:optimizeQuality;shape-rendering:geometricPrecision;text-rendering:geometricPrecision" />
        <path
           d="m 147.6905,156.865 h -2.65738"
           fill="none"
           stroke="#e77817"
           stroke-linecap="round"
           stroke-width="1.87491"
           id="path187"
           style="fill-rule:evenodd;image-rendering:optimizeQuality;shape-rendering:geometricPrecision;text-rendering:geometricPrecision" />
        <path
           d="m 126.43109,164.83795 v -2.65738"
           fill="none"
           stroke="#e77817"
           stroke-linecap="round"
           stroke-width="1.87491"
           id="path189"
           style="fill-rule:evenodd;image-rendering:optimizeQuality;shape-rendering:geometricPrecision;text-rendering:geometricPrecision" />
        <path
           d="m 129.09052,164.83795 v -2.65738"
           fill="none"
           stroke="#e77817"
           stroke-linecap="round"
           stroke-width="1.87491"
           id="path191"
           style="fill-rule:evenodd;image-rendering:optimizeQuality;shape-rendering:geometricPrecision;text-rendering:geometricPrecision" />
        <path
           d="m 134.40315,164.83795 v -2.65738"
           fill="none"
           stroke="#e77817"
           stroke-linecap="round"
           stroke-width="1.87491"
           id="path193"
           style="fill-rule:evenodd;image-rendering:optimizeQuality;shape-rendering:geometricPrecision;text-rendering:geometricPrecision" />
        <path
           d="m 131.74817,164.83795 v -2.65738"
           fill="none"
           stroke="#e77817"
           stroke-linecap="round"
           stroke-width="1.87491"
           id="path195"
           style="fill-rule:evenodd;image-rendering:optimizeQuality;shape-rendering:geometricPrecision;text-rendering:geometricPrecision" />
        <path
           d="m 137.06258,164.83795 v -2.65738"
           fill="none"
           stroke="#e77817"
           stroke-linecap="round"
           stroke-width="1.87491"
           id="path197"
           style="fill-rule:evenodd;image-rendering:optimizeQuality;shape-rendering:geometricPrecision;text-rendering:geometricPrecision" />
        <path
           d="m 139.72023,164.83795 v -2.65738"
           fill="none"
           stroke="#e77817"
           stroke-linecap="round"
           stroke-width="1.87491"
           id="path199"
           style="fill-rule:evenodd;image-rendering:optimizeQuality;shape-rendering:geometricPrecision;text-rendering:geometricPrecision" />
        <path
           d="m 123.77478,164.83777 v -2.65738"
           fill="none"
           stroke="#e77817"
           stroke-linecap="round"
           stroke-width="1.87491"
           id="path201"
           style="fill-rule:evenodd;image-rendering:optimizeQuality;shape-rendering:geometricPrecision;text-rendering:geometricPrecision" />
        <path
           d="m 126.43011,135.60639 v -2.65738"
           fill="none"
           stroke="#e77817"
           stroke-linecap="round"
           stroke-width="1.87491"
           id="path203"
           style="fill-rule:evenodd;image-rendering:optimizeQuality;shape-rendering:geometricPrecision;text-rendering:geometricPrecision" />
        <path
           d="m 129.08963,135.60639 v -2.65738"
           fill="none"
           stroke="#e77817"
           stroke-linecap="round"
           stroke-width="1.87491"
           id="path205"
           style="fill-rule:evenodd;image-rendering:optimizeQuality;shape-rendering:geometricPrecision;text-rendering:geometricPrecision" />
        <path
           d="m 134.40225,135.60639 v -2.65738"
           fill="none"
           stroke="#e77817"
           stroke-linecap="round"
           stroke-width="1.87491"
           id="path207"
           style="fill-rule:evenodd;image-rendering:optimizeQuality;shape-rendering:geometricPrecision;text-rendering:geometricPrecision" />
        <path
           d="m 131.74701,135.60639 v -2.65738"
           fill="none"
           stroke="#e77817"
           stroke-linecap="round"
           stroke-width="1.87491"
           id="path209"
           style="fill-rule:evenodd;image-rendering:optimizeQuality;shape-rendering:geometricPrecision;text-rendering:geometricPrecision" />
        <path
           d="m 137.06187,135.60639 v -2.65738"
           fill="none"
           stroke="#e77817"
           stroke-linecap="round"
           stroke-width="1.87491"
           id="path211"
           style="fill-rule:evenodd;image-rendering:optimizeQuality;shape-rendering:geometricPrecision;text-rendering:geometricPrecision" />
        <path
           d="m 139.71925,135.60639 v -2.65738"
           fill="none"
           stroke="#e77817"
           stroke-linecap="round"
           stroke-width="1.87491"
           id="path213"
           style="fill-rule:evenodd;image-rendering:optimizeQuality;shape-rendering:geometricPrecision;text-rendering:geometricPrecision" />
        <path
           d="m 123.7738,135.60639 v -2.65738"
           fill="none"
           stroke="#e77817"
           stroke-linecap="round"
           stroke-width="1.87491"
           id="path215"
           style="fill-rule:evenodd;image-rendering:optimizeQuality;shape-rendering:geometricPrecision;text-rendering:geometricPrecision" />
        <g
           id="g6191"
           transform="matrix(1.0833659,0,0,1.0833659,-11.336144,-9.4881177)"
           style="fill:#003380;stroke:#00112b">
          <path
             d="m 127.45728,141.93556 h 1.67967 v 0.15891 h -1.67967 z"
             fill="#004f34"
             fill-rule="nonzero"
             stroke="#004f34"
             stroke-width="0.101235"
             id="path217"
             style="fill:#003380;stroke:#00112b;image-rendering:optimizeQuality;shape-rendering:geometricPrecision;text-rendering:geometricPrecision" />
          <path
             d="m 126.87656,150.49209 h 1.67958 v 0.1556 h -1.67958 z m 0,0.59697 h 1.67958 v 0.15837 h -1.67958 z"
             fill="#004f34"
             fill-rule="nonzero"
             stroke="#004f34"
             stroke-width="0.101235"
             id="path219"
             style="fill:#003380;stroke:#00112b;image-rendering:optimizeQuality;shape-rendering:geometricPrecision;text-rendering:geometricPrecision" />
          <path
             d="m 133.14413,144.19131 h 1.67967 v 0.1589 h -1.67967 z"
             fill="#004f34"
             fill-rule="nonzero"
             stroke="#004f34"
             stroke-width="0.101235"
             id="path221"
             style="fill:#003380;stroke:#00112b;image-rendering:optimizeQuality;shape-rendering:geometricPrecision;text-rendering:geometricPrecision" />
          <path
             d="m 129.41342,140.90045 0.52778,-0.25773 h 0.053 v 1.83259 c 0,0.12114 0.005,0.19702 0.0147,0.2272 0.01,0.0302 0.0316,0.0523 0.0632,0.0688 l 0.19542,0.0272 v 0.059 h -0.81614 v -0.059 l 0.19881,-0.0267 c 0.0294,-0.0153 0.0501,-0.0362 0.062,-0.0623 0.012,-0.0262 0.0175,-0.10427 0.0175,-0.23425 v -1.17162 c 0,-0.15783 -0.005,-0.2588 -0.0158,-0.30362 -0.008,-0.0344 -0.0214,-0.0595 -0.0411,-0.0754 l -0.0708,-0.024 -0.16489,0.0498 -0.0239,-0.0498 z"
             fill="#004f34"
             fill-rule="nonzero"
             stroke="#004f34"
             stroke-width="0.101235"
             id="path223"
             style="fill:#003380;stroke:#00112b;image-rendering:optimizeQuality;shape-rendering:geometricPrecision;text-rendering:geometricPrecision" />
          <path
             d="m 128.84842,150.63466 c 0,-0.24738 0.037,-0.46056 0.11186,-0.63911 0.0748,-0.17854 0.17354,-0.31183 0.29745,-0.39931 0.12391,-0.0875 0.19489,-0.10427 0.29746,-0.10427 0.16596,0 0.3154,0.0853 0.44761,0.2546 0.16543,0.21024 0.24782,0.49484 0.24782,0.85479 0,0.25175 -0.036,0.46529 -0.10864,0.64124 -0.0727,0.17596 -0.1648,0.30425 -0.27728,0.38343 -0.11249,0.0792 -0.22113,0.11909 -0.32576,0.11909 -0.20631,0 -0.37896,-0.12186 -0.51644,-0.36655 -0.11623,-0.20578 -0.17408,-0.45378 -0.17408,-0.74382 z m 0.31334,0.0399 c 0,0.29871 0.0365,0.54287 0.11026,0.73132 0.0737,0.18846 0.15176,0.23863 0.27183,0.23863 0.12007,0 0.11731,-0.0262 0.17899,-0.0775 l 0.14088,-0.26005 c 0.0492,-0.18345 0.0737,-0.44244 0.0737,-0.77614 0,-0.24737 -0.0256,-0.45386 -0.077,-0.61946 l -0.14846,-0.26112 c -0.0437,-0.0349 -0.0966,-0.0523 -0.15828,-0.0523 -0.0617,0 -0.13712,0.0321 -0.19372,0.0971 -0.0566,0.065 -0.12891,0.22792 -0.15676,0.41789 -0.0279,0.18997 -0.0414,0.37682 -0.0414,0.56152 z"
             fill="#004f34"
             fill-rule="nonzero"
             stroke="#004f34"
             stroke-width="0.101235"
             id="path225"
             style="fill:#003380;stroke:#00112b;image-rendering:optimizeQuality;shape-rendering:geometricPrecision;text-rendering:geometricPrecision" />
          <path
             d="m 125.63737,140.68753 0.66981,1.70145 0.36298,-1.27089 c 0.03,-0.10445 0.0448,-0.18524 0.0448,-0.24318 0,-0.0394 -0.0137,-0.0704 -0.0416,-0.0928 l -0.15489,-0.0332 -0.0399,-0.002 0.0174,-0.0596 h 0.69713 l -0.0191,0.0596 -0.16159,0.0225 -0.11203,0.0862 -0.10365,0.26228 -0.51037,1.78921 h -0.0574 l -0.7216,-1.83081 -0.3853,1.35239 c -0.0285,0.10222 -0.0432,0.18087 -0.0432,0.23488 0,0.0409 0.0131,0.0715 0.0394,0.0922 l 0.18614,0.0427 -0.0158,0.059 h -0.68124 l 0.0223,-0.059 0.17141,-0.0223 c 0.0437,-0.0196 0.0759,-0.0443 0.0972,-0.0754 l 0.10418,-0.27202 0.43011,-1.50915 c -0.0414,-0.0639 -0.0862,-0.1082 -0.13364,-0.13204 l -0.22166,-0.0405 0.0179,-0.0595 h 0.54216 z"
             fill="#004f34"
             fill-rule="nonzero"
             stroke="#004f34"
             stroke-width="0.101235"
             id="path227"
             style="fill:#003380;stroke:#00112b;image-rendering:optimizeQuality;shape-rendering:geometricPrecision;text-rendering:geometricPrecision" />
          <path
             d="m 125.68414,150.25891 -0.21246,0.72802 c 0.19934,-0.29764 0.35209,-0.49377 0.45796,-0.58768 0.10588,-0.0939 0.20792,-0.14034 0.30612,-0.14034 l 0.13221,0.0523 c 0.0344,0.0354 0.052,0.0814 0.052,0.13766 0,0.0562 -0.0153,0.14962 -0.0465,0.25621 l -0.19479,0.67339 c -0.0229,0.0781 -0.0339,0.12569 -0.0339,0.14257 l 0.0125,0.0378 0.0274,0.0153 0.0463,-0.0207 0.1856,-0.20488 0.0497,0.03 c -0.0994,0.14203 -0.19336,0.24371 -0.28165,0.30424 -0.0618,0.0416 -0.11749,0.0623 -0.16605,0.0623 l -0.0944,-0.0362 c -0.0235,-0.0239 -0.0354,-0.0563 -0.0354,-0.0966 0,-0.0514 0.018,-0.13926 0.0546,-0.26389 l 0.1856,-0.64339 0.0349,-0.18738 -0.0207,-0.0518 -0.0514,-0.0203 -0.10694,0.0388 c -0.0792,0.0481 -0.16105,0.12731 -0.24604,0.23756 l -0.27023,0.42333 -0.12516,0.29772 -0.0796,0.26371 h -0.24023 l 0.29103,-1.00172 c 0.0344,-0.12061 0.0513,-0.19337 0.0513,-0.21738 l -0.0279,-0.0618 -0.0694,-0.0267 -0.0675,0.007 -0.0607,0.01 -0.009,-0.0578 0.55313,-0.0988 z"
             fill="#004f34"
             fill-rule="nonzero"
             stroke="#004f34"
             stroke-width="0.101235"
             id="path229"
             style="fill:#003380;stroke:#00112b;image-rendering:optimizeQuality;shape-rendering:geometricPrecision;text-rendering:geometricPrecision" />
          <path
             d="m 138.88294,142.75339 -0.45413,1.57308 0.1823,-0.15516 c 0.19916,-0.16872 0.32861,-0.29326 0.3886,-0.37468 l 0.0283,-0.0606 -0.009,-0.0272 -0.0378,-0.0209 -0.0982,-0.008 h -0.0562 l 0.0174,-0.0607 h 0.69927 l -0.0163,0.0607 -0.20685,0.0376 -0.16873,0.0923 -0.213,0.16604 -0.13748,0.12168 0.0869,0.32165 c 0.0572,0.22836 0.096,0.36379 0.11624,0.40646 0.0203,0.0427 0.0414,0.0639 0.0628,0.0639 l 0.0639,-0.0274 c 0.055,-0.0403 0.11454,-0.1048 0.17739,-0.19336 l 0.0563,0.0399 c -0.11641,0.14641 -0.20542,0.24247 -0.26764,0.28898 -0.0622,0.0465 -0.11802,0.0694 -0.16926,0.0694 l -0.10418,-0.0525 c -0.0427,-0.0634 -0.11365,-0.31129 -0.21229,-0.74444 l -0.21952,0.19068 -0.16436,0.56805 h -0.24942 l 0.53054,-1.8259 0.0448,-0.15507 c 0.005,-0.0269 0.008,-0.0504 0.008,-0.0705 0,-0.0202 -0.01,-0.0469 -0.0295,-0.0639 l -0.0858,-0.0256 -0.11668,0.0158 v -0.0557 l 0.55358,-0.0944 z"
             fill="#004f34"
             fill-rule="nonzero"
             stroke="#004f34"
             stroke-width="0.101235"
             id="path231"
             style="fill:#003380;stroke:#00112b;image-rendering:optimizeQuality;shape-rendering:geometricPrecision;text-rendering:geometricPrecision" />
          <path
             d="m 137.81497,143.64255 -0.31665,1.12126 c -0.0213,0.0759 -0.0321,0.12115 -0.0321,0.13597 l 0.0153,0.0421 0.0359,0.0158 0.0574,-0.0256 c 0.0611,-0.0481 0.12239,-0.11641 0.1839,-0.20488 l 0.0563,0.0367 -0.25603,0.28023 c -0.0726,0.0568 -0.14195,0.0846 -0.20792,0.0846 l -0.10695,-0.0388 c -0.0279,-0.0262 -0.0414,-0.059 -0.0414,-0.0988 l 0.0399,-0.19667 0.20792,-0.71712 c 0.0339,-0.11695 0.0512,-0.19069 0.0512,-0.22069 l -0.025,-0.0574 -0.0678,-0.0223 -0.14578,0.0174 v -0.0622 l 0.55197,-0.0895 z"
             fill="#004f34"
             fill-rule="nonzero"
             stroke="#004f34"
             stroke-width="0.101235"
             id="path233"
             style="fill:#003380;stroke:#00112b;image-rendering:optimizeQuality;shape-rendering:geometricPrecision;text-rendering:geometricPrecision" />
          <path
             d="m 137.76828,142.9456 0.11365,0.0463 c 0.0305,0.0307 0.0463,0.0683 0.0463,0.11364 0,0.0437 -0.0158,0.0809 -0.0476,0.11258 -0.0318,0.0317 -0.0688,0.047 -0.1124,0.047 l -0.11293,-0.047 c -0.0312,-0.0316 -0.047,-0.0688 -0.047,-0.11258 0,-0.0454 0.0153,-0.0829 0.0463,-0.11364 0.0311,-0.0307 0.0686,-0.0463 0.11364,-0.0463 z"
             fill="#004f34"
             fill-rule="nonzero"
             stroke="#004f34"
             stroke-width="0.101235"
             id="path235"
             style="fill:#003380;stroke:#00112b;image-rendering:optimizeQuality;shape-rendering:geometricPrecision;text-rendering:geometricPrecision" />
          <path
             d="m 130.82938,146.60962 c -0.0131,0.0918 -0.0196,0.16756 -0.0196,0.22854 0,0.16194 0.058,0.30058 0.17301,0.41565 0.11498,0.11507 0.25461,0.1714 0.41922,0.1714 0.13204,0 0.25827,-0.0271 0.38004,-0.0814 l 0.54197,-0.35772 0.0571,0.0796 c -0.43333,0.42985 -0.84595,0.64419 -1.2392,0.64419 -0.26656,0 -0.46787,-0.0843 -0.60348,-0.25175 -0.13561,-0.16747 -0.20211,-0.35396 -0.20211,-0.55715 0,-0.27255 0.0832,-0.55143 0.25166,-0.83693 0.16845,-0.28549 0.37905,-0.50662 0.63357,-0.6649 0.25451,-0.15828 0.51563,-0.23693 0.78435,-0.23693 0.19363,0 0.33691,0.0394 0.43038,0.11802 0.0935,0.0787 0.13953,0.1714 0.13953,0.27906 0,0.15266 -0.0599,0.29773 -0.18069,0.43637 -0.15908,0.18167 -0.39306,0.32781 -0.70186,0.43904 -0.20488,0.0749 -0.49323,0.13391 -0.86362,0.17516 z m 0.0188,-0.13391 c 0.2704,-0.0308 0.49118,-0.0843 0.66061,-0.15909 0.22551,-0.10016 0.39397,-0.22095 0.50627,-0.36048 0.11231,-0.13953 0.16846,-0.27335 0.16846,-0.39976 0,-0.12641 -0.0245,-0.13855 -0.0731,-0.18631 -0.0487,-0.0478 -0.11694,-0.0712 -0.20675,-0.0712 -0.18631,0 -0.3837,0.0993 -0.59331,0.29772 -0.20961,0.19845 -0.36316,0.49163 -0.46225,0.87907 z"
             fill="#004f34"
             fill-rule="nonzero"
             stroke="#004f34"
             stroke-width="0.101235"
             id="path237"
             style="fill:#003380;stroke:#00112b;image-rendering:optimizeQuality;shape-rendering:geometricPrecision;text-rendering:geometricPrecision" />
          <path
             d="m 137.06365,143.64719 -0.0794,0.23229 h -0.38709 c -0.12061,0.24407 -0.21925,0.47832 -0.29576,0.70231 -0.0378,0.11043 -0.0454,0.1889 -0.0232,0.23594 0.0222,0.047 0.0617,0.0715 0.11963,0.0715 l 0.13649,-0.0479 c 0.0449,-0.0323 0.0825,-0.0788 0.1132,-0.13935 h 0.0557 c -0.0757,0.16872 -0.15668,0.28737 -0.24247,0.35673 -0.0858,0.0694 -0.16836,0.10418 -0.24594,0.10418 -0.0776,0 -0.13927,-0.0381 -0.16917,-0.11346 -0.0299,-0.0753 -0.009,-0.21738 0.0622,-0.42449 l 0.31531,-0.74543 h -0.41592 c -0.22399,0.55929 -0.38521,0.91272 -0.48288,1.06109 -0.0977,0.14838 -0.18738,0.22229 -0.26916,0.22229 l -0.0819,-0.0381 c -0.0163,-0.0256 -0.0179,-0.0579 -0.005,-0.096 0.013,-0.0381 0.0222,-0.052 0.0373,-0.0721 l 0.11534,-0.11694 0.2288,-0.27202 c 0.10124,-0.16221 0.20971,-0.39173 0.32478,-0.68811 h -0.0737 l -0.18721,0.0386 c -0.0748,0.0383 -0.15346,0.10222 -0.23532,0.19176 h -0.0623 l 0.3404,-0.38226 c 0.0788,-0.0536 0.17363,-0.0804 0.28344,-0.0804 h 1.12394 z"
             fill="#004f34"
             fill-rule="nonzero"
             stroke="#004f34"
             stroke-width="0.101235"
             id="path239"
             style="fill:#003380;stroke:#00112b;image-rendering:optimizeQuality;shape-rendering:geometricPrecision;text-rendering:geometricPrecision" />
          <path
             d="m 129.38396,148.99865 h -4.2076 v -0.11588 l 2.14371,-2.6622 -2.14371,-2.61837 v -0.11811 h 4.09494 l 0.0863,1.07957 h -0.12793 c -0.0339,-0.2954 -0.11704,-0.50528 -0.24818,-0.63115 -0.13114,-0.12588 -0.31504,-0.18917 -0.54911,-0.18917 h -2.37118 l 1.80037,2.20164 -2.01578,2.48928 h 2.62167 c 0.14971,0 0.31281,-0.0285 0.48993,-0.0863 0.12141,-0.0405 0.22318,-0.11267 0.30308,-0.21658 0.0799,-0.10391 0.14659,-0.26576 0.20006,-0.48564 l 0.12793,0.0229 -0.20453,1.3299 z"
             fill="#004f34"
             fill-rule="nonzero"
             stroke="#004f34"
             stroke-width="0.101235"
             id="path241"
             style="fill:#003380;stroke:#00112b;image-rendering:optimizeQuality;shape-rendering:geometricPrecision;text-rendering:geometricPrecision" />
        </g>
      </g>
      <g
         id="g3693"
         transform="matrix(0.90478859,0,0,0.90478859,-8.6635491,137.70653)">
        <g
           id="g3595"
           transform="matrix(1.0432948,0,0,0.99268135,1.1804555,-1.25457)">
          <path
             d="m 81.135921,75.104858 c 0,0 13.446412,17.514322 13.571315,17.720085 0.51556,0.849634 0.457563,2.410868 -0.622792,3.291313 -1.208546,0.98484 -4.142911,0.344607 -3.79456,-0.440241 0.783759,-1.765839 -0.238141,-2.398337 -0.639108,-2.861461 -0.632929,-0.731039 -12.497781,-14.2398 -11.43577,-15.269145 z"
             fill="#360b0b"
             id="path377"
             style="stroke-width:0.0894603" />
          <path
             d="m 81.766777,76.662119 c 0,0 12.218895,16.002928 12.335269,16.187777 0.481776,0.765095 0.561026,2.102069 -0.260112,2.748755 -1.393101,1.097028 -3.399945,0.307811 -3.100486,0.0369 0.71616,-0.647977 0.339952,-1.790719 0.04312,-2.224405 -1.711433,-2.500078 -12.068951,-14.23072 -11.345897,-14.85797 z"
             fill="#552200"
             id="path379"
             style="stroke-width:0.0894603" />
          <path
             d="m 90.846855,91.010475 c -0.366719,0.30044 -0.896136,0.232086 -1.182489,-0.152673 -0.286353,-0.38476 -0.221204,-0.940219 0.145515,-1.240659 0.366719,-0.300439 0.896135,-0.232086 1.182489,0.152674 0.286347,0.384751 0.221204,0.940218 -0.145515,1.240658 z"
             fill="#9c9c9c"
             fill-rule="evenodd"
             id="path381"
             style="stroke-width:0.0894603" />
          <path
             d="m 87.306746,86.2538 c -0.366719,0.30044 -0.896135,0.232086 -1.182488,-0.152673 -0.286354,-0.384759 -0.221199,-0.940211 0.14552,-1.240651 0.366719,-0.30044 0.896135,-0.232086 1.182483,0.152666 0.286348,0.384752 0.221204,0.940219 -0.145515,1.240658 z"
             fill="#9c9c9c"
             fill-rule="evenodd"
             id="path383"
             style="stroke-width:0.0894603" />
          <path
             d="m 83.767175,81.497848 c -0.366719,0.30044 -0.896135,0.232086 -1.182489,-0.152673 -0.286347,-0.384752 -0.221198,-0.940212 0.145521,-1.240651 0.366719,-0.30044 0.896135,-0.232086 1.182483,0.152666 0.286353,0.384759 0.221204,0.940218 -0.145515,1.240658 z"
             fill="#9c9c9c"
             fill-rule="evenodd"
             id="path385"
             style="stroke-width:0.0894603" />
        </g>
        <path
           d="m 85.034627,43.264832 c 9.298406,0 17.416673,5.049916 21.765023,12.556084 l -0.0424,-0.07225 -10.940126,6.299276 C 93.661666,58.398383 89.71019,55.935515 85.177437,55.884795 l -0.14278,-7.94e-4 c -6.912357,0 -12.516367,5.603713 -12.516367,12.516106 0,2.260497 0.60266,4.379436 1.65073,6.20963 2.15744,3.76641 6.213184,6.30677 10.865637,6.30677 4.681193,0 8.760009,-2.572639 10.906477,-6.379326 l -0.0522,0.09136 10.923696,6.328313 c -4.30064,7.442612 -12.307697,12.476942 -21.498026,12.577282 l -0.279987,0.002 c -9.327737,0 -17.469147,-5.08102 -21.806527,-12.626865 -2.11746,-3.683786 -3.329,-7.954537 -3.329,-12.508701 0,-13.881644 11.25333,-25.13527 25.135527,-25.13527 z"
           fill="#ffffff"
           fill-rule="nonzero"
           id="path3041"
           style="fill:#a05a2c;stroke-width:0.264583" />
        <g
           id="g3588"
           transform="matrix(1.0432948,0,0,0.99268135,1.1804555,-1.25457)">
          <g
             id="g3539"
             transform="translate(64.171413)">
            <path
               d="M -4.6434988,45.563647 14.738722,72.501141 8.1214216,77.922455 C -3.9598846,61.689382 -8.2502376,53.241044 -4.6432923,45.563477 Z"
               fill="#808080"
               id="path363"
               style="stroke-width:0.0894603" />
            <path
               d="M -4.5160919,45.490657 14.879876,72.416889 8.4826496,77.657905 C -3.5986567,61.424832 -7.9302435,53.010275 -4.5160437,45.490618 Z"
               fill="url(#e)"
               id="path365"
               style="fill:url(#e);stroke-width:0.0894603" />
            <g
               transform="matrix(0.05375203,0.07222403,-0.06951232,0.05694892,-16.470073,20.398414)"
               id="g375">
              <path
                 d="m 676.8,67.298 34.778,-0.16337 8.4192,45.854 c -19.578,4.2554 -24.914,10.625 -25.836,14.195 -0.80756,3.1258 -2.4828,18.921 -5.1268,26.665 -1.6168,4.7353 -13.714,9.0919 -15.914,9.0919 z"
                 fill="#808080"
                 id="path367" />
              <path
                 d="m 667.7,64.999 5.1862,-0.35674 c 0.23614,-0.01624 0.42726,0.19073 0.42726,0.42765 v 97.413 c 0,0.23692 -0.19056,0.42765 -0.42726,0.42765 H 667.7 c -0.2367,0 -0.42726,-0.19073 -0.42726,-0.42765 v -97.056 c 0,-0.23692 0.19112,-0.4114 0.42726,-0.42765 z"
                 fill="#808080"
                 id="path369" />
              <path
                 d="m 672.93,64.701 34.778,-0.16337 -0.22543,42.879 c -18.035,5.6758 -16.951,13.318 -17.191,17.17 -0.31305,5.0177 -1.7864,28.281 -4.2971,30.283 -3.6594,2.9177 -10.856,8.132 -13.056,8.132 z"
                 fill="#d6d6d6"
                 id="path371" />
              <path
                 d="m 689.4,144.72 c -0.12347,3.8099 1.3749,2.1715 -0.4272,8.7031 -1.3308,4.8235 -11.248,9.5779 -17.871,9.5273 l -0.24445,-8.7348 c 3.9942,3.2297 12.93,5.0294 18.543,-9.4956 z"
                 fill="#808080"
                 id="path373" />
            </g>
          </g>
          <path
             d="m 81.126491,75.112585 0.62887,1.537263 -2.352103,1.958286 -1.208869,-1.066974 z"
             fill="#140b0b"
             id="path387"
             style="stroke-width:0.0894603" />
        </g>
      </g>
    </g>
  </g>
</svg>
